<svg xmlns="http://www.w3.org/2000/svg" viewBox="0 0 800 600" role="img" aria-label="Belajar Alam">
  <defs>
    <linearGradient id="g" x1="0" x2="1" y1="0" y2="1"><stop offset="0" stop-color="#e9fff7"/><stop offset="1" stop-color="#fff8df"/></linearGradient>
    <filter id="shadow" x="-20%" y="-20%" width="140%" height="140%"><feDropShadow dx="0" dy="14" stdDeviation="18" flood-color="#0b3f7a" flood-opacity="0.18"/></filter>
  </defs>
  <rect width="800" height="600" fill="url(#g)"/>
  <circle cx="90" cy="90" r="72" fill="#ffffff" opacity="0.22"/>
  <circle cx="710" cy="118" r="96" fill="#ffffff" opacity="0.16"/>
  <circle cx="690" cy="500" r="130" fill="#ffffff" opacity="0.13"/>
  <rect x="72" y="72" width="656" height="456" rx="42" fill="#ffffff" opacity="0.93" filter="url(#shadow)"/>
  <rect x="108" y="108" width="584" height="288" rx="32" fill="#f4fbff" stroke="#d5ebff" stroke-width="4"/>
  <path d="M130 354c70-118 122-176 155-176s75 58 126 176z" fill="#1aa37a" opacity="0.48"/><path d="M360 354c58-88 104-132 137-132s78 44 135 132z" fill="#1469b8" opacity="0.26"/><circle cx="584" cy="164" r="42" fill="#f6c343"/>
  <text x="400" y="468" text-anchor="middle" font-family="Poppins, Arial, sans-serif" font-size="34" font-weight="800" fill="#0b3f7a">Belajar Alam</text>
  <text x="400" y="506" text-anchor="middle" font-family="Poppins, Arial, sans-serif" font-size="20" font-weight="600" fill="#66788d">Contoh foto kegiatan, silakan ganti dengan foto asli</text>
  <text x="400" y="300" text-anchor="middle" font-family="Arial, sans-serif" font-size="110">🌿</text>
</svg>