<svg xmlns="http://www.w3.org/2000/svg" viewBox="0 0 512 512" role="img" aria-label="Logo TK Pertiwi I">
  <defs>
    <linearGradient id="b" x1="0" x2="1" y1="0" y2="1">
      <stop offset="0" stop-color="#1469b8"/>
      <stop offset="1" stop-color="#1aa37a"/>
    </linearGradient>
    <filter id="s" x="-20%" y="-20%" width="140%" height="140%">
      <feDropShadow dx="0" dy="12" stdDeviation="16" flood-color="#0b3f7a" flood-opacity="0.18"/>
    </filter>
  </defs>
  <circle cx="256" cy="256" r="232" fill="#ffffff" filter="url(#s)"/>
  <circle cx="256" cy="256" r="214" fill="#e9f5ff" stroke="#1469b8" stroke-width="10"/>
  <path d="M106 236c46-78 101-118 165-118 58 0 103 29 135 84-61-22-117-12-167 31-45 39-89 49-133 3z" fill="#1aa37a" opacity="0.95"/>
  <path d="M115 278c50 55 101 82 154 82 55 0 101-27 139-82-61 32-120 32-177 0-39-21-77-21-116 0z" fill="#1469b8"/>
  <circle cx="256" cy="166" r="38" fill="#f6c343"/>
  <path d="M181 319c46 36 96 37 150 0" fill="none" stroke="#ffffff" stroke-width="18" stroke-linecap="round"/>
  <text x="256" y="434" text-anchor="middle" font-family="Poppins, Arial, sans-serif" font-size="58" font-weight="800" fill="#0b3f7a">TK</text>
</svg>